<svg xmlns="http://www.w3.org/2000/svg" width="1720.32" height="1720.32" viewBox="-0.16 -1.19 1720.32 1720.32" role="img" aria-label="Nativerse">
  <path fill="#2A33C2" fill-rule="evenodd" d="M1080.5 1596.85 C1079.4 1596.24 1075.35 1592.68 1071.5 1588.92 C1065.75 1583.32 1063.63 1581.9 1059.62 1581.01 C1056.66 1580.36 1053.2 1578.61 1050.81 1576.57 C1048.13 1574.27 1045.4 1572.99 1042.19 1572.51 C1037.87 1571.87 1036.55 1570.87 1025.46 1559.91 C1014.58 1549.16 1012.96 1547.93 1008.66 1547.13 C1004.37 1546.33 1002.71 1545.07 991.69 1534.27 C980.3 1523.09 979.16 1522.25 974.58 1521.56 C970.23 1520.91 968.76 1519.95 961.59 1513.08 C954.77 1506.55 952.8 1505.22 949.08 1504.63 C945.15 1504 943.35 1502.63 932.55 1492.05 C922.42 1482.13 919.77 1480.05 916.46 1479.45 C910.27 1478.33 909.44 1477.7 892.98 1461.43 C878.7 1447.33 877.1 1446.04 872.98 1445.41 C868.79 1444.77 867.16 1443.4 848 1424.44 C833.56 1410.15 826.61 1403.96 824.5 1403.49 C822.85 1403.12 820.15 1402.41 818.5 1401.91 C816.52 1401.32 804.43 1389.93 783.03 1368.53 C751.55 1337.04 750.41 1336.02 745.5 1335 C737.6 1333.36 636.54 1232.3 635.12 1224.61 C634.24 1219.93 633.18 1218.69 610.15 1195.61 C586.8 1172.21 584 1168.74 584 1163.27 C584 1161.3 581.11 1157.76 571.89 1148.43 C560.89 1137.3 559.69 1135.73 558.88 1131.37 C558.3 1128.27 556.95 1125.5 555.05 1123.54 C550.78 1119.11 550 1116.1 550 1104 C550 1093.12 550 1093.12 546 1088.5 C542 1083.88 542 1083.88 542 965.58 C542 847.28 542 847.28 546 842.74 C550 838.19 550 838.19 550 806.16 C550 788.07 550.42 773.03 550.96 771.6 C552.49 767.59 628.36 692 630.87 692 C633.28 692 633.65 692.34 653.45 712.69 C667 726.61 668.31 728.27 669.13 732.65 C669.93 736.96 671.16 738.58 681.88 749.46 C693.03 760.78 693.78 761.8 694.46 766.47 C695.11 770.93 695.99 772.26 702.99 779.47 C709.66 786.34 710.89 788.15 711.49 792 C712.13 796.05 713.39 797.7 724.02 808.51 C731.37 815.98 736.06 821.55 736.42 823.26 C736.74 824.77 737.26 827.22 737.57 828.71 C737.89 830.24 741.28 834.6 745.29 838.66 C752.89 846.35 753.82 847.83 753.93 852.38 C753.99 854.68 756.51 857.82 766.36 867.88 C778.03 879.8 778.76 880.78 779.45 885.5 C780.13 890.22 780.83 891.16 791.81 902.2 C803.93 914.39 804.81 915.62 804.93 920.41 C804.99 922.78 807.99 926.34 821.41 939.91 C835.59 954.25 837.91 957.04 838.54 960.5 C838.94 962.7 839.72 965.4 840.28 966.5 C840.83 967.6 873.74 1000.96 913.41 1040.64 C987.66 1114.89 987.74 1114.97 994.92 1114.99 C995.71 1115 1005.61 1124.19 1016.92 1135.42 C1030.61 1149 1038.42 1156.03 1040.25 1156.42 C1041.76 1156.74 1044.04 1157.21 1045.3 1157.47 C1046.57 1157.73 1052.31 1162.7 1058.05 1168.53 C1068.95 1179.58 1071.29 1181.29 1076.87 1182.36 C1078.72 1182.71 1081.77 1184.35 1083.65 1186 C1087.91 1189.74 1089.77 1189.76 1094.35 1186.12 C1096.34 1184.54 1100.11 1182.71 1102.73 1182.06 C1106.97 1181.01 1109.29 1179.1 1123.52 1164.99 C1138.12 1150.5 1139.93 1149.04 1143.93 1148.4 C1149.01 1147.58 1150.69 1146.15 1174.02 1122.73 C1184.11 1112.61 1190.5 1106.95 1192.27 1106.58 C1193.77 1106.26 1196.24 1105.74 1197.75 1105.43 C1201.2 1104.72 1251.57 1054.99 1253.61 1050.28 C1254.37 1048.51 1255 1045.88 1255 1044.43 C1255 1042.41 1257.75 1039 1266.75 1029.84 C1273.21 1023.27 1278.67 1017.71 1278.87 1017.49 C1279.07 1017.27 1279.63 1014.99 1280.11 1012.43 C1280.69 1009.32 1282.14 1006.48 1284.44 1003.94 C1286.33 1001.84 1288.15 998.63 1288.48 996.81 C1288.8 994.99 1288.94 897.6 1288.79 780.4 C1288.5 567.3 1288.5 567.3 1284.78 563.17 C1282.73 560.91 1280.81 557.91 1280.53 556.53 C1280.24 555.14 1279.74 552.78 1279.43 551.29 C1279.11 549.76 1275.72 545.4 1271.71 541.34 C1264.11 533.65 1263.18 532.17 1263.07 527.62 C1263.01 525.32 1260.49 522.18 1250.64 512.12 C1239.32 500.56 1238.22 499.11 1237.6 494.9 C1237.12 491.67 1236.04 489.45 1233.96 487.46 C1229.93 483.6 1230.14 480.57 1234.75 476.28 C1242.67 468.92 1235.9 469.53 1312.95 469.18 C1397.85 468.78 1393.48 468.45 1401.13 475.89 C1407 481.6 1407 481.6 1407 757.66 C1407 1033.72 1407 1033.72 1403.5 1037.43 C1401.58 1039.47 1399.75 1042.35 1399.44 1043.82 C1399.13 1045.29 1398.64 1047.62 1398.36 1049 C1398.08 1050.38 1394.28 1055.16 1389.92 1059.63 C1384.21 1065.49 1382 1068.47 1382 1070.31 C1382 1071.72 1381.56 1074.02 1381.03 1075.42 C1379.57 1079.25 1226.48 1231.86 1223.48 1232.49 C1222.11 1232.77 1219.79 1233.26 1218.3 1233.57 C1216.66 1233.91 1210.9 1238.75 1203.55 1245.94 C1192.97 1256.31 1190.97 1257.83 1187.17 1258.47 C1182.48 1259.26 1179.57 1261.54 1165.63 1275.27 C1161.3 1279.53 1156.69 1283.24 1155.38 1283.51 C1154.07 1283.78 1151.79 1284.26 1150.3 1284.57 C1148.66 1284.91 1142.9 1289.75 1135.55 1296.94 C1124.98 1307.29 1122.97 1308.83 1119.18 1309.47 C1115.7 1310.06 1113.1 1311.75 1105.89 1318.1 C1094.83 1327.84 1091.45 1328.35 1084 1321.44 C1082.62 1320.16 1079.26 1318.61 1076.51 1318 C1072.33 1317.07 1070.3 1315.69 1063.94 1309.51 C1059.77 1305.45 1055.16 1301.88 1053.68 1301.56 C1052.21 1301.25 1049.79 1300.74 1048.3 1300.43 C1046.66 1300.09 1040.9 1295.25 1033.55 1288.06 C1022.8 1277.52 1021.02 1276.17 1017 1275.5 C1012.98 1274.83 1011.2 1273.48 1000.46 1262.96 C990.42 1253.12 987.77 1251.05 984.46 1250.45 C978.24 1249.33 977.41 1248.69 961 1232.41 C946.52 1218.05 945.18 1216.97 940.6 1216.11 C935.75 1215.21 934.65 1214.16 844.85 1124.34 C755.34 1034.81 754 1033.42 754 1029.56 C754 1025.81 753.15 1024.79 733.12 1004.57 C712.68 983.94 712.24 983.4 711.55 978.5 C710.87 973.58 710.5 973.14 688.6 951.25 C665.54 928.19 665.52 928.17 662.63 930.28 C661.03 931.45 660.32 997.61 660.99 1083.41 C660.99 1084.5 666.21 1090.59 673.11 1097.57 C684.15 1108.74 685.31 1110.26 686.13 1114.66 C686.97 1119.17 688.11 1120.58 702.96 1135.5 C713.47 1146.06 719.08 1152.43 719.44 1154.25 C719.75 1155.76 720.26 1158.24 720.58 1159.75 C721.4 1163.66 789.63 1231.65 793.62 1232.54 C802.68 1234.56 805 1236.6 805 1242.59 C805 1246.23 808.87 1249.56 814.04 1250.39 C818.27 1251.06 820.18 1252.76 851.5 1284.01 C883.49 1315.93 884.66 1316.96 889.6 1318.02 C894.38 1319.03 895.72 1320.12 910.6 1334.97 C920.99 1345.34 927.45 1351.04 929.25 1351.42 C930.76 1351.74 933.21 1352.25 934.68 1352.56 C936.16 1352.88 940.78 1356.45 944.97 1360.53 C951.43 1366.82 953.33 1368.09 957.63 1369.01 C962.35 1370.03 963.73 1371.15 978.08 1385.55 C992.97 1400.5 994.66 1401.74 1002.43 1403.47 C1004.17 1403.86 1008.47 1407.16 1013 1411.56 C1019.49 1417.88 1021.35 1419.13 1025.4 1419.88 C1029.7 1420.69 1031.32 1421.91 1041.83 1432.28 C1053.09 1443.38 1057.05 1445.97 1062.82 1445.99 C1063.55 1446 1067.91 1449.6 1072.5 1454 C1080.85 1462 1080.85 1462 1088.7 1462 C1096.26 1462 1096.75 1461.86 1101.69 1458.14 C1104.69 1455.89 1108.48 1454.02 1110.81 1453.65 C1113.2 1453.26 1116.44 1451.64 1118.89 1449.59 C1121.35 1447.54 1124.61 1445.9 1127.09 1445.48 C1131.43 1444.75 1135.08 1441.85 1148 1428.86 C1155.27 1421.56 1156.8 1420.57 1162.45 1419.55 C1165.54 1418.99 1168.05 1417.23 1173.99 1411.45 C1180.4 1405.21 1182.34 1403.91 1186.57 1403 C1191.07 1402.03 1192.81 1400.73 1203.81 1390.02 C1215.11 1379.04 1216.42 1378.06 1220.78 1377.44 C1225.3 1376.79 1226.35 1375.92 1246 1356.42 C1265.43 1337.14 1266.77 1336.02 1271.59 1334.99 C1276.54 1333.93 1277.69 1332.9 1313.06 1297.48 C1333.07 1277.45 1350.58 1260.62 1351.97 1260.08 C1353.36 1259.54 1356.3 1258.63 1358.5 1258.07 C1363.6 1256.77 1448.47 1172.47 1449.44 1167.75 C1449.75 1166.24 1450.26 1163.76 1450.58 1162.25 C1450.95 1160.45 1456.59 1154.05 1466.79 1143.81 C1482.93 1127.62 1483.81 1126.48 1483.93 1121.62 C1483.99 1119.32 1486.52 1116.17 1496.5 1106 C1505.94 1096.38 1509 1092.63 1509 1090.7 C1509 1086.74 1510.81 1082.82 1514.31 1079.19 C1517.5 1075.89 1517.5 1075.89 1517.5 723.98 C1517.5 404.41 1517.35 371.93 1515.92 370.49 C1515.05 369.62 1511.95 368.28 1509.03 367.51 C1506.11 366.74 1502.55 365.01 1501.11 363.68 C1499.67 362.34 1497.52 360.74 1496.32 360.12 C1494.72 359.3 1442.98 359 1305.5 359 C1165.6 359 1116.3 358.7 1114.68 357.85 C1113.48 357.22 1111.02 355.42 1109.22 353.85 C1107.41 352.28 1105.03 351 1103.93 351 C1102.83 351 1100.49 350.39 1098.72 349.65 C1094.95 348.07 1010.22 263.68 1008.88 260.18 C1007.65 256.94 1008.77 253.32 1011.75 250.98 C1014.25 249.02 1016.6 249 1321.13 249 L1628 249 L1628 686 C1628 1113.79 1627.96 1123 1626.11 1123 C1622.8 1123 1620.04 1126.26 1619.13 1131.25 C1618.27 1135.94 1615.71 1139.46 1606.44 1148.68 C1604.11 1151 1603.06 1153.15 1602.55 1156.68 C1601.86 1161.39 1601.2 1162.15 1572.98 1190.5 C1553.16 1210.42 1543.95 1220.36 1543.56 1222.25 C1543.25 1223.76 1542.76 1226.15 1542.47 1227.56 C1542.11 1229.25 1512.95 1259.07 1456.01 1315.96 C1370.08 1401.82 1370.08 1401.82 1364.79 1402.95 C1359.79 1404.02 1358.64 1404.94 1343.48 1419.99 C1328.9 1434.47 1327.07 1435.97 1323.1 1436.6 C1318.04 1437.41 1314.58 1440.24 1297.04 1457.98 C1279.64 1475.58 1275.97 1478.59 1270.97 1479.39 C1267.18 1479.99 1265.23 1481.49 1254.5 1492 C1243.77 1502.51 1241.82 1504.01 1238.03 1504.61 C1233.77 1505.29 1228.79 1508.93 1220.26 1517.59 C1217.88 1520.01 1215.78 1521.06 1212.26 1521.57 C1207.85 1522.21 1206.62 1523.13 1195.49 1534.09 C1184.68 1544.74 1182.99 1546.03 1178.49 1547 C1174.32 1547.91 1172.19 1549.32 1165.57 1555.57 C1161.2 1559.69 1156.59 1563.27 1155.32 1563.53 C1154.04 1563.79 1151.79 1564.25 1150.32 1564.56 C1148.84 1564.88 1144.22 1568.45 1140.03 1572.53 C1133.63 1578.76 1131.65 1580.1 1127.46 1581 C1123.36 1581.89 1121.21 1583.3 1115.05 1589.14 C1110.95 1593.02 1106.54 1596.61 1105.24 1597.1 C1101.92 1598.36 1082.92 1598.17 1080.5 1596.85 Z M121.5 1477.81 C120.4 1477.19 118.1 1475.47 116.39 1473.99 C114.65 1472.49 111.43 1471 109.12 1470.64 C101.91 1469.48 101 1467.71 100.99 1454.75 C100.97 1441.87 99.99 1438.95 95.24 1437.54 C92 1436.59 92 1436.59 92 1020.79 C92 613.79 92.04 605 93.89 605 C97.2 605 99.96 601.74 100.87 596.77 C101.89 591.18 102.97 589.9 125.67 567.32 C135.69 557.34 142.13 550.15 142.46 548.57 C142.76 547.15 143.25 544.76 143.56 543.25 C143.95 541.34 155.48 529.08 181.45 503 C217.79 466.49 218.8 465.38 219.43 460.87 C220.23 455.25 222.09 453.44 228 452.51 C232.3 451.84 234.08 450.23 267.76 416.66 C287.15 397.33 303.2 380.84 303.42 380.01 C303.64 379.18 304.11 376.81 304.46 374.75 C305.56 368.21 323.05 351.73 330.07 350.61 C334 349.98 335.94 348.4 350.95 333.59 C366.46 318.29 367.79 317.22 372.11 316.59 C376.41 315.96 377.78 314.88 392.11 300.82 C409.29 283.97 409.88 283.51 415.5 282.53 C418.97 281.92 421.62 279.73 435.5 265.96 C450.43 251.15 451.84 250.01 456.59 248.99 C461.32 247.98 462.82 246.78 477.97 231.94 C486.94 223.14 495.32 215.75 496.63 215.49 C497.93 215.22 500.21 214.74 501.7 214.43 C503.34 214.09 509.12 209.23 516.53 201.97 C527.25 191.46 529.18 190 532.99 189.39 C537.18 188.71 541.61 185.44 551.27 175.86 C553.12 174.02 555.59 172.88 558.75 172.41 C562.86 171.79 564.48 170.72 571.53 163.97 C578.2 157.58 580.35 156.12 583.91 155.52 C588.13 154.8 590.15 153.3 601.8 142.24 C604.09 140.06 606.52 138.89 609.78 138.41 C613.86 137.79 615.5 136.7 622.65 129.85 C632.66 120.27 635.91 119.58 643.01 125.51 C645.32 127.44 648.28 129.24 649.6 129.51 C650.92 129.78 653.21 130.25 654.68 130.56 C656.16 130.88 660.77 134.45 664.94 138.51 C671.29 144.68 673.34 146.07 677.5 147 C681.66 147.93 683.71 149.32 690.04 155.47 C695.95 161.23 698.46 162.99 701.55 163.55 C707.33 164.59 708.78 165.52 716.51 173.1 C722.42 178.9 724.26 180.11 728.31 180.87 C732.64 181.67 734.26 182.9 745.31 193.73 C756.78 204.98 757.82 205.75 762.51 206.45 C767.3 207.16 768.15 207.83 784 223.45 C799.21 238.44 800.85 239.77 804.98 240.41 C809.09 241.04 810.71 242.34 824.98 256.43 C841.46 272.72 842.27 273.34 848.5 274.45 C852.01 275.09 855.01 277.67 873.03 295.54 C892.22 314.58 893.85 315.95 898.03 316.59 C902.2 317.23 903.85 318.61 923 337.56 C937.44 351.85 944.39 358.04 946.5 358.51 C948.15 358.88 950.86 359.59 952.52 360.09 C954.55 360.7 969.63 375.14 998.66 404.25 C1041.78 447.5 1041.78 447.5 1042.47 452.5 C1043.15 457.5 1043.15 457.5 1084.68 499.12 C1125.03 539.56 1126.24 540.88 1127.12 545.6 C1127.96 550.13 1129.1 551.53 1144.51 567.04 C1157.41 580.02 1161 584.2 1161 586.25 C1161 591 1163.05 594.41 1170.57 602.14 C1178 609.77 1178 609.77 1178 783.6 L1178 957.43 L1135.75 1000.01 C1092.57 1043.53 1090.16 1045.71 1087.19 1044.08 C1083.1 1041.83 1052.12 1009.37 1051.58 1006.75 C1051.26 1005.24 1050.75 1002.82 1050.45 1001.37 C1050.15 999.93 1046.32 995.01 1041.95 990.45 C1034.95 983.14 1034 981.71 1034 978.45 C1034 975.19 1033.08 973.81 1026.08 966.63 C1021.5 961.93 1017.91 957.34 1017.58 955.75 C1017.26 954.24 1016.75 951.79 1016.44 950.32 C1016.12 948.84 1012.54 944.21 1008.44 940 C1002.13 933.52 1000.87 931.65 1000.12 927.63 C999.37 923.59 998.11 921.73 991.68 915.12 C987.5 910.83 983.88 906.17 983.56 904.68 C983.25 903.21 982.78 900.92 982.51 899.6 C982.24 898.28 980.5 895.39 978.65 893.17 C976.52 890.63 975.03 887.55 974.59 884.82 C973.97 880.9 972.4 878.98 957.58 864 C941.8 848.06 941.22 847.33 940.54 842.5 C939.86 837.77 939.19 836.86 928.19 825.8 C916.06 813.6 915.19 812.38 915.07 807.57 C915.01 805.14 911.46 801.08 894 783.5 C877.04 766.42 873 761.83 873 759.64 C873 754.11 869.65 749.97 847.11 727.71 C823.51 704.41 822 702.69 822 699.02 C822 694.15 819.29 691.2 813.76 690.05 C806.24 688.49 797.42 679.96 796.42 673.29 C795.67 668.28 793.11 665 789.97 665 C784.97 665 779.8 660.58 750 630.79 C716.98 597.78 716.88 597.69 710.5 596.54 C707.05 595.91 704.24 593.59 690 579.54 C674.58 564.32 673.2 563.22 668.92 562.59 C664.72 561.98 663.37 560.96 652.92 550.46 C646.22 543.74 640.71 539 639.58 539 C638.51 539 634.18 542.37 629.94 546.5 C624.43 551.86 621.5 554 619.68 554 C615.06 554 612.63 555.72 600.72 567.36 C589.87 577.98 588.57 578.94 584.22 579.56 C579.66 580.22 578.64 581.1 554.5 605.01 C531.31 627.99 529.18 629.84 525.14 630.5 C520.14 631.32 517.91 633.2 496.79 654.48 C484.06 667.3 483.03 668.62 482.41 672.89 C481.78 677.27 480.71 678.55 460.88 698.57 C440 719.65 440 719.65 440 727.76 C440 735.78 439.95 735.93 436.04 740.45 C433.87 742.96 431.83 746.48 431.51 748.26 C431.19 750.04 431.06 839.75 431.21 947.6 C431.5 1143.7 431.5 1143.7 435.22 1147.83 C437.27 1150.09 439.19 1153.09 439.47 1154.47 C439.76 1155.86 440.22 1158.08 440.49 1159.4 C440.76 1160.72 442.5 1163.61 444.35 1165.83 C446.45 1168.33 447.98 1171.46 448.4 1174.09 C448.99 1177.8 450.56 1179.84 460.97 1190.47 C468.23 1197.88 473.09 1203.66 473.43 1205.3 C473.74 1206.79 474.25 1209.18 474.55 1210.63 C474.85 1212.07 478.68 1216.99 483.05 1221.55 C491.9 1230.79 492.88 1233.71 488.73 1238.52 C486.72 1240.86 485.54 1241.22 478.1 1241.73 C470.89 1242.23 469.29 1242.68 466.61 1245.01 C460.67 1250.16 462.93 1250 397.52 1250 C346.28 1250 335.45 1249.76 333.2 1248.58 C330.08 1246.95 323.75 1240.51 322.12 1237.32 C320.49 1234.13 320.52 688.77 322.16 685.68 C322.79 684.48 326.34 680.54 330.04 676.92 C336.81 670.29 337.34 669.4 338.41 662.99 C338.92 659.96 347.37 651.11 399.75 598.78 C457.9 540.68 460.69 538.05 464.88 537.39 C470.41 536.52 471.01 535.98 507.67 499.32 C536.26 470.72 536.93 470.13 541.67 469.45 C546.27 468.79 547.26 468 562.59 452.83 C577.13 438.44 579.16 436.78 583.78 435.56 C588.52 434.31 601 425.06 601 422.8 C601 421.62 606.18 419.25 610.52 418.43 C613.6 417.85 616.28 415.95 622.66 409.84 C634.06 398.93 635.81 398.93 647.42 409.87 C654.73 416.76 656.37 417.83 660.55 418.46 C664.74 419.08 666.32 420.12 673.46 426.96 C680.3 433.52 682.31 434.88 686.05 435.5 C690.1 436.18 691.97 437.69 707 452.48 C722.85 468.06 723.7 468.73 728.5 469.45 C733.31 470.16 734.13 470.82 750 486.48 C765.22 501.5 766.85 502.82 771 503.47 C778.24 504.61 981.71 708.08 983.12 715.59 C983.91 719.82 985.04 721.5 991.45 727.99 C995.78 732.37 999.11 736.65 999.44 738.25 C999.75 739.76 1000.26 742.21 1000.57 743.7 C1000.91 745.34 1005.75 751.1 1012.94 758.45 C1023.45 769.18 1024.83 770.99 1025.5 774.98 C1026.17 778.98 1027.61 780.87 1038.84 792.48 C1053.19 807.31 1055.25 808.65 1058.18 805.03 C1059.93 802.87 1060.07 801.68 1059.46 794.32 C1058.54 783.31 1059.33 779.9 1064.04 774.45 C1068 769.88 1068 769.88 1068 757.94 C1068 746.01 1068 746.01 1064.54 742.18 C1059.09 736.14 1059.1 736.27 1059.09 690.31 C1059.09 666.77 1059.06 646.43 1059.04 645.13 C1059.01 643.55 1056.36 640.03 1051.11 634.63 C1044.36 627.68 1043.11 625.85 1042.49 622 C1041.82 617.86 1040.46 616.17 1025.51 601 C1009.87 585.11 1009.23 584.31 1008.53 579.5 C1007.8 574.5 1007.8 574.5 934.55 501.31 C884.6 451.4 860.46 427.94 858.65 427.56 C857.19 427.25 854.76 426.74 853.25 426.43 C851.37 426.04 841.3 416.71 821.5 397.03 C794.42 370.11 792.21 368.16 788.14 367.5 C783.28 366.71 781.24 365.02 761.97 345.79 C751.17 335.02 750.14 334.25 745.5 333.55 C740.88 332.86 739.77 332.04 728.47 320.97 C721.11 313.76 715.34 308.91 713.7 308.57 C712.21 308.26 709.99 307.79 708.75 307.54 C707.51 307.28 703.35 303.91 699.5 300.05 C692.91 293.44 690.69 292.12 683.58 290.53 C681.91 290.16 677.62 286.96 673.58 283.07 C665.7 275.5 663.37 274 659.45 274 C657.47 274 654.77 272.05 649.06 266.5 C640.47 258.14 639.03 257.71 633.86 261.97 C631.88 263.6 628.38 265.35 626.09 265.87 C622.16 266.75 618.61 269.47 608.73 279.17 C606.9 280.97 604.38 282.12 601.25 282.59 C597.14 283.21 595.52 284.28 588.38 291.12 C581.59 297.62 579.48 299.06 575.94 299.62 C571.82 300.28 567.33 303.61 557.73 313.14 C555.86 314.99 553.43 316.11 550.23 316.57 C545.86 317.21 544.59 318.15 533.49 329.09 C522.59 339.83 521.02 341.02 516.4 342.01 C511.54 343.05 510.22 344.18 486.77 367.48 C465.4 388.72 461.73 391.96 458.36 392.56 C452.11 393.69 451.57 394.15 426.5 419.09 C403.71 441.77 402.26 443.02 397.7 443.87 C395.07 444.36 392.72 444.93 392.48 445.13 C385.18 451.53 254.52 583.22 253.9 584.82 C253.4 586.09 253 588.3 253 589.72 C253 591.73 249.31 596.04 236.59 608.91 C222.41 623.25 220.09 626.04 219.46 629.5 C218.55 634.52 217.45 636.76 214.13 640.31 C211.5 643.13 211.5 643.13 211 681.52 C210.5 719.91 210.5 719.91 206.5 724 C202.5 728.1 202.5 728.1 202.5 736.49 C202.5 744.61 202.61 745 205.75 748.24 C209.62 752.24 209.85 754.85 206.58 757.92 C202.27 761.97 201.86 764.5 202.19 784.69 C202.5 803.67 202.5 803.67 205.75 807.37 C209.83 812.01 209.83 813.99 205.75 818.63 C202.5 822.33 202.5 822.33 202.5 915.11 C202.5 1007.89 202.5 1007.89 205.75 1011.24 C209.89 1015.51 209.84 1017.8 205.5 1023 C201.1 1028.26 201.1 1030.74 205.5 1036 C209.67 1040.99 209.78 1042.12 206.5 1046.41 C203.29 1050.62 203.36 1051.75 207.03 1056 C211.13 1060.75 211.17 1061.02 210.81 1082.77 C210.5 1101.91 210.5 1101.91 206.53 1105.97 C200.03 1112.62 200.22 1125.36 206.9 1131.41 C209.58 1133.84 209.58 1137.16 206.9 1139.59 C202.63 1143.46 202 1146.2 202 1161 C202 1175.8 202.63 1178.54 206.9 1182.41 C209.63 1184.88 209.55 1186.21 206.37 1191.02 C203.73 1195 203.73 1195 206.37 1198.81 C209.55 1203.4 209.65 1205.1 206.9 1207.59 C201.95 1212.07 202 1211.45 202 1267.05 C202 1320.69 202.37 1326 206.13 1326 C209.23 1326 210.99 1332.61 211 1344.21 C211 1361.44 205.05 1359.69 265.38 1360.15 C311.47 1360.5 315.84 1360.68 318.07 1362.3 C328.35 1369.77 326.44 1369.18 339.05 1368.82 C350.6 1368.5 350.6 1368.5 354.86 1364.85 C360.63 1359.91 365.93 1359.73 493.54 1360.16 C589.56 1360.48 595.73 1360.61 598.04 1362.28 C599.4 1363.26 602.03 1365.18 603.9 1366.53 C606.67 1368.55 608.48 1369 613.71 1369 C620.65 1369 622.74 1369.76 627.78 1374.15 C629.59 1375.72 631.97 1377 633.07 1377 C638 1377 643.32 1381.57 673.51 1411.76 C705.69 1443.95 708.12 1445.96 714.68 1445.99 C716.64 1446 720 1451.09 720 1454.04 C720 1455.74 721.35 1458.43 723.5 1461 C725.42 1463.3 727 1465.76 727 1466.46 C727 1468.4 723.14 1472.89 718.69 1476.11 C714.7 1479 714.7 1479 419.1 1478.97 C201.6 1478.95 122.97 1478.64 121.5 1477.81 Z"/>
</svg>
