<svg xmlns="http://www.w3.org/2000/svg" viewBox="0 0 540 150" role="img" aria-label="mcpgawk by nativerse">
  <g transform="translate(14,20) scale(0.1113)" fill="#2A33C2">
  <path d="M0,0 L6,0 L10,5 L19,6 L22,11 L27,16 L35,17 L39,22 L43,26 L43,28 L51,28 L54,30 L55,33 L59,35 L61,39 L70,40 L72,44 L77,48 L84,56 L92,57 L97,62 L101,67 L106,72 L111,77 L111,79 L119,79 L122,82 L127,87 L129,90 L132,91 L134,95 L139,99 L140,101 L148,102 L152,107 L160,114 L165,119 L169,124 L174,129 L178,130 L183,131 L188,136 L192,141 L196,145 L196,147 L201,149 L202,153 L206,154 L208,158 L217,159 L219,164 L223,165 L224,169 L229,171 L230,175 L234,176 L236,181 L240,182 L241,186 L246,188 L247,192 L251,193 L253,197 L257,199 L258,203 L263,205 L264,209 L268,210 L270,215 L274,216 L275,225 L280,228 L281,232 L285,233 L286,237 L291,239 L292,243 L297,245 L304,253 L309,258 L314,262 L319,267 L324,272 L329,277 L331,279 L331,288 L336,290 L341,295 L346,300 L350,305 L353,306 L354,312 L355,316 L360,320 L360,322 L365,324 L365,558 L360,562 L353,570 L348,575 L343,579 L338,584 L333,589 L329,594 L321,601 L316,606 L312,611 L309,614 L308,616 L303,615 L302,611 L298,609 L293,604 L289,600 L286,597 L285,595 L281,593 L280,588 L280,583 L275,581 L270,576 L269,575 L269,566 L265,565 L262,561 L258,559 L257,550 L253,548 L251,544 L247,542 L246,538 L246,533 L241,530 L236,525 L235,524 L235,515 L230,514 L229,505 L225,503 L223,499 L219,497 L217,493 L213,491 L212,487 L207,485 L206,476 L202,474 L197,469 L192,464 L190,462 L190,453 L185,451 L180,446 L175,441 L170,436 L167,433 L166,431 L162,429 L161,420 L157,418 L155,413 L151,412 L149,408 L145,406 L144,402 L139,400 L132,392 L128,389 L127,380 L118,379 L116,374 L111,372 L110,363 L101,362 L99,357 L94,355 L93,351 L88,349 L87,345 L83,344 L81,340 L77,338 L76,334 L72,333 L70,329 L66,327 L64,323 L60,321 L58,317 L51,317 L48,314 L41,306 L33,299 L30,295 L22,294 L18,289 L10,282 L8,278 L4,278 L1,283 L-4,288 L-12,289 L-16,294 L-21,299 L-26,304 L-27,305 L-35,306 L-39,311 L-44,316 L-49,321 L-53,325 L-56,328 L-59,331 L-62,334 L-64,334 L-66,339 L-75,340 L-77,344 L-81,345 L-83,350 L-87,351 L-89,356 L-92,357 L-95,362 L-98,363 L-99,372 L-104,374 L-105,378 L-109,380 L-111,384 L-115,385 L-117,390 L-121,391 L-123,396 L-126,397 L-127,402 L-127,411 L-132,414 L-132,683 L-127,686 L-126,695 L-122,697 L-121,706 L-116,709 L-111,714 L-106,719 L-104,723 L-104,729 L-99,732 L-94,737 L-93,738 L-93,744 L-95,746 L-108,747 L-112,752 L-199,752 L-201,747 L-205,746 L-206,744 L-206,375 L-201,373 L-199,368 L-196,367 L-195,364 L-195,358 L-190,356 L-188,352 L-183,347 L-178,342 L-173,338 L-166,330 L-161,325 L-156,321 L-149,313 L-144,308 L-143,306 L-139,304 L-132,296 L-127,291 L-122,286 L-119,283 L-116,280 L-113,277 L-107,277 L-100,271 L-98,267 L-94,265 L-92,261 L-88,260 L-86,256 L-82,252 L-79,249 L-77,249 L-75,244 L-71,243 L-69,238 L-65,237 L-63,232 L-54,232 L-52,227 L-47,222 L-42,217 L-37,213 L-35,210 L-27,209 L-23,204 L-20,201 L-17,198 L-11,198 L-9,197 L-7,193 L-3,192 L-1,187 L7,187 L9,192 L14,194 L15,198 L23,198 L26,201 L27,203 L30,204 L33,209 L41,210 L46,215 L50,220 L55,225 L60,230 L61,231 L69,232 L73,237 L77,241 L77,243 L82,245 L83,249 L88,251 L89,254 L98,255 L100,260 L104,261 L106,265 L110,267 L111,271 L116,273 L117,277 L121,278 L123,282 L128,287 L133,291 L136,294 L139,297 L144,302 L149,307 L154,312 L159,317 L163,322 L171,329 L176,334 L180,339 L188,346 L193,351 L197,356 L200,357 L202,361 L206,363 L208,367 L212,369 L213,373 L217,374 L219,378 L223,380 L225,384 L229,386 L230,390 L235,392 L236,401 L240,403 L245,408 L246,409 L247,418 L252,421 L257,426 L261,430 L263,431 L264,440 L268,442 L270,446 L274,448 L280,455 L281,457 L285,457 L286,453 L286,437 L291,434 L291,414 L286,411 L285,346 L281,344 L280,340 L275,338 L274,329 L269,326 L262,318 L257,313 L252,309 L252,300 L247,298 L242,293 L237,288 L232,283 L228,278 L223,273 L218,269 L213,264 L208,259 L203,254 L198,249 L194,244 L189,239 L184,235 L179,230 L174,225 L169,220 L164,215 L160,210 L155,205 L154,204 L146,203 L141,198 L137,193 L132,188 L127,183 L122,179 L116,172 L116,170 L111,168 L110,164 L101,164 L99,159 L94,157 L93,153 L89,152 L87,148 L83,146 L81,142 L72,141 L70,137 L65,133 L58,125 L50,124 L46,119 L42,115 L42,113 L33,113 L31,108 L26,106 L25,103 L22,102 L15,101 L13,97 L8,92 L8,90 L4,91 L1,96 L-7,97 L-9,101 L-13,103 L-15,107 L-24,108 L-27,113 L-30,113 L-32,118 L-36,119 L-41,120 L-46,125 L-50,130 L-58,131 L-62,136 L-69,142 L-72,147 L-81,148 L-83,152 L-87,153 L-89,158 L-92,159 L-94,163 L-98,164 L-100,169 L-104,170 L-106,175 L-111,180 L-112,181 L-121,181 L-123,186 L-128,191 L-133,196 L-138,201 L-143,205 L-148,210 L-152,215 L-160,216 L-165,221 L-169,226 L-172,229 L-175,232 L-178,235 L-179,237 L-182,238 L-185,243 L-188,244 L-190,248 L-194,250 L-196,254 L-200,255 L-202,259 L-206,263 L-209,266 L-212,269 L-213,271 L-217,273 L-219,277 L-222,278 L-224,282 L-228,284 L-235,292 L-240,297 L-245,301 L-250,306 L-251,307 L-252,316 L-256,318 L-261,323 L-265,328 L-272,334 L-274,334 L-274,343 L-279,346 L-280,400 L-285,403 L-285,417 L-280,420 L-281,424 L-285,426 L-285,456 L-280,459 L-281,464 L-285,466 L-285,592 L-280,595 L-281,600 L-285,602 L-285,609 L-280,612 L-281,616 L-285,618 L-284,622 L-280,624 L-280,655 L-285,658 L-285,671 L-280,674 L-281,679 L-285,681 L-285,705 L-280,708 L-281,712 L-285,714 L-284,718 L-280,720 L-281,724 L-285,726 L-285,802 L-280,805 L-279,826 L-208,826 L-205,831 L-185,831 L-183,827 L-181,826 L-22,826 L-19,829 L-18,831 L-5,832 L-1,837 L6,837 L9,840 L16,848 L21,853 L26,857 L33,865 L38,870 L43,875 L48,879 L50,882 L58,883 L60,887 L59,893 L64,894 L65,898 L60,900 L59,904 L57,905 L-340,905 L-344,900 L-351,899 L-353,897 L-353,881 L-354,878 L-359,877 L-359,323 L-353,322 L-353,313 L-348,308 L-343,304 L-338,299 L-333,294 L-329,289 L-325,288 L-325,279 L-320,275 L-316,271 L-314,271 L-312,266 L-309,266 L-307,261 L-303,260 L-301,255 L-297,254 L-296,250 L-292,248 L-290,244 L-286,243 L-284,239 L-280,235 L-277,232 L-275,231 L-274,222 L-273,221 L-264,220 L-262,216 L-258,214 L-256,210 L-252,209 L-251,205 L-247,203 L-245,199 L-241,197 L-239,193 L-235,192 L-233,187 L-230,186 L-226,181 L-223,178 L-222,176 L-218,174 L-218,167 L-215,164 L-212,161 L-209,158 L-207,158 L-205,153 L-196,152 L-194,148 L-190,147 L-188,142 L-184,141 L-182,136 L-177,131 L-172,130 L-168,129 L-163,124 L-159,119 L-151,112 L-148,108 L-140,107 L-136,102 L-131,97 L-126,92 L-122,88 L-120,85 L-111,84 L-109,80 L-105,79 L-103,74 L-99,73 L-97,68 L-94,68 L-92,63 L-88,62 L-83,61 L-78,56 L-74,51 L-69,46 L-65,45 L-60,44 L-54,37 L-52,34 L-43,33 L-41,29 L-37,28 L-35,23 L-26,23 L-24,18 L-19,13 L-18,12 L-10,11 L-6,6 L-1,1 Z "  transform="translate(359,17)"/>
  <path d="M0,0 L407,0 L407,582 L401,583 L401,592 L396,596 L392,600 L390,600 L390,609 L385,613 L381,617 L379,617 L377,622 L374,622 L372,627 L368,628 L366,633 L363,634 L361,638 L357,640 L355,644 L351,646 L350,655 L346,657 L342,662 L335,668 L331,673 L326,678 L321,683 L316,688 L311,693 L306,697 L299,705 L294,710 L289,714 L284,719 L280,724 L272,731 L265,739 L260,744 L255,748 L249,755 L246,758 L243,761 L240,764 L238,764 L236,769 L227,770 L225,774 L221,776 L219,780 L215,781 L213,786 L206,792 L198,792 L196,797 L191,802 L186,807 L181,811 L174,819 L173,820 L165,821 L161,826 L154,832 L151,837 L142,838 L140,842 L136,843 L134,848 L126,849 L122,854 L114,861 L111,865 L103,866 L99,871 L96,874 L95,876 L85,877 L83,882 L78,887 L77,888 L68,888 L66,893 L61,898 L60,899 L41,899 L37,894 L33,890 L33,888 L25,888 L22,885 L21,883 L12,882 L10,878 L5,874 L-2,866 L-10,865 L-14,860 L-18,856 L-18,854 L-22,853 L-24,848 L-33,848 L-35,843 L-39,842 L-41,838 L-49,837 L-53,832 L-61,825 L-64,821 L-72,820 L-76,815 L-81,810 L-86,805 L-91,800 L-92,798 L-101,797 L-103,792 L-107,791 L-109,787 L-113,785 L-115,781 L-118,780 L-120,776 L-125,772 L-126,770 L-135,769 L-138,764 L-146,757 L-151,752 L-155,747 L-163,740 L-168,735 L-172,730 L-179,724 L-185,724 L-189,719 L-194,714 L-199,709 L-204,705 L-211,697 L-216,692 L-221,688 L-228,680 L-233,675 L-238,671 L-245,663 L-250,658 L-255,654 L-255,645 L-260,643 L-265,638 L-270,633 L-275,628 L-279,623 L-284,618 L-288,616 L-289,610 L-290,606 L-295,602 L-296,600 L-299,599 L-301,595 L-305,593 L-306,587 L-307,583 L-311,581 L-312,560 L-316,559 L-317,558 L-317,397 L-312,394 L-311,346 L-307,344 L-302,339 L-298,334 L-293,329 L-288,324 L-283,319 L-278,314 L-273,310 L-268,305 L-264,300 L-262,300 L-260,295 L-257,294 L-253,299 L-249,303 L-249,305 L-244,307 L-243,311 L-238,313 L-232,320 L-232,328 L-228,329 L-223,334 L-218,339 L-216,340 L-215,349 L-209,354 L-209,356 L-204,358 L-204,365 L-203,367 L-199,369 L-194,374 L-189,379 L-187,381 L-186,389 L-181,393 L-180,395 L-176,397 L-175,406 L-171,408 L-169,412 L-165,414 L-164,418 L-159,420 L-158,429 L-153,432 L-146,440 L-142,443 L-142,452 L-137,454 L-132,459 L-127,464 L-122,469 L-119,472 L-119,479 L-114,482 L-113,486 L-109,487 L-107,491 L-103,493 L-101,497 L-97,499 L-96,503 L-91,505 L-90,509 L-86,510 L-85,514 L-80,516 L-79,520 L-74,522 L-73,526 L-69,527 L-68,531 L-63,533 L-62,537 L-57,539 L-56,543 L-52,544 L-51,548 L-46,550 L-45,554 L-41,555 L-39,559 L-35,561 L-33,565 L-29,567 L-28,571 L-24,572 L-22,576 L-13,577 L-10,582 L-7,583 L-5,587 L0,591 L7,599 L12,604 L16,605 L21,606 L26,611 L30,616 L34,620 L34,622 L43,622 L46,627 L50,628 L52,623 L56,622 L61,621 L63,617 L66,616 L69,611 L72,610 L74,606 L78,605 L80,600 L89,599 L91,595 L95,594 L97,589 L101,588 L103,583 L108,578 L113,573 L115,571 L122,571 L126,566 L131,561 L136,556 L141,552 L148,544 L153,539 L158,537 L158,528 L163,524 L168,519 L171,515 L174,514 L175,505 L180,502 L180,211 L175,207 L175,198 L171,197 L168,193 L164,191 L163,182 L159,180 L157,176 L153,174 L152,170 L147,168 L147,159 L142,157 L142,153 L146,151 L149,147 L252,147 L256,152 L260,155 L260,524 L255,527 L254,536 L250,538 L246,543 L243,543 L243,552 L238,556 L233,561 L228,566 L224,571 L219,576 L214,581 L209,586 L204,590 L199,595 L194,600 L190,605 L182,612 L177,617 L173,622 L168,627 L163,632 L158,637 L153,641 L146,649 L141,654 L139,656 L131,657 L126,662 L122,667 L119,670 L117,673 L108,674 L106,678 L102,679 L100,684 L97,685 L94,690 L85,690 L83,695 L78,700 L73,705 L71,707 L63,708 L58,713 L54,718 L47,718 L43,713 L35,712 L33,707 L28,705 L27,702 L18,701 L16,696 L12,695 L10,691 L6,689 L4,685 L-5,684 L-8,679 L-16,672 L-19,668 L-27,667 L-31,662 L-35,658 L-35,656 L-39,655 L-44,650 L-46,645 L-55,645 L-58,640 L-62,638 L-63,634 L-68,632 L-69,629 L-73,627 L-75,623 L-80,619 L-86,612 L-90,610 L-92,606 L-97,602 L-98,600 L-101,599 L-103,595 L-108,591 L-113,586 L-118,581 L-122,577 L-125,574 L-130,569 L-132,566 L-135,565 L-137,561 L-141,559 L-143,555 L-148,551 L-154,544 L-158,542 L-160,538 L-164,536 L-165,532 L-169,531 L-171,527 L-175,525 L-176,520 L-177,515 L-181,513 L-182,509 L-186,508 L-191,503 L-195,498 L-203,491 L-204,490 L-204,481 L-209,479 L-214,474 L-219,469 L-224,464 L-227,461 L-227,459 L-231,457 L-234,453 L-238,453 L-237,559 L-233,561 L-232,565 L-227,567 L-226,571 L-221,573 L-221,582 L-216,584 L-211,589 L-206,594 L-202,599 L-198,603 L-198,611 L-194,612 L-189,617 L-184,622 L-180,627 L-175,632 L-170,636 L-165,641 L-160,646 L-155,651 L-151,656 L-144,656 L-142,657 L-142,667 L-132,668 L-127,673 L-123,678 L-118,683 L-113,688 L-108,692 L-101,700 L-96,705 L-91,709 L-90,713 L-81,713 L-79,718 L-74,720 L-73,724 L-69,725 L-67,729 L-63,731 L-61,735 L-54,735 L-51,738 L-44,746 L-36,747 L-31,752 L-27,757 L-22,762 L-17,767 L-17,769 L-7,770 L-5,774 L-1,776 L1,780 L9,781 L14,786 L18,791 L23,796 L24,797 L32,798 L36,803 L41,808 L55,808 L57,804 L62,803 L67,803 L69,798 L77,797 L81,792 L89,785 L92,781 L100,780 L104,775 L107,772 L110,769 L118,769 L120,764 L123,763 L125,759 L129,758 L131,753 L139,752 L143,747 L148,742 L153,737 L158,732 L163,728 L166,724 L174,723 L179,718 L183,713 L186,710 L189,707 L197,700 L199,696 L202,695 L204,691 L208,689 L210,685 L214,684 L216,679 L219,678 L221,674 L223,673 L231,673 L233,668 L237,667 L239,662 L242,661 L244,657 L248,656 L250,651 L254,650 L255,646 L259,645 L261,640 L265,639 L267,634 L271,633 L273,628 L276,627 L278,623 L282,622 L284,617 L287,616 L288,612 L289,606 L293,604 L295,600 L299,599 L301,594 L304,593 L306,589 L310,587 L311,578 L315,576 L319,571 L326,565 L328,565 L328,556 L333,553 L333,81 L332,80 L324,79 L320,74 L64,73 L60,68 L54,68 L46,61 L41,56 L36,51 L32,46 L27,41 L22,36 L17,32 L16,28 L12,27 L7,22 L5,17 L0,15 L-1,11 L-5,10 L-6,3 L-5,1 Z "  transform="translate(617,102)"/>
  </g>
  <text x="158" y="60" dominant-baseline="central" font-family="Sentient, Georgia, serif" font-size="62" font-weight="500" letter-spacing="-1.5" fill="#16160F">mcpgawk</text>
  <text x="160" y="112" font-family="Supreme, -apple-system, sans-serif" font-size="22" letter-spacing="0.3" fill="#6B6B5E">by <tspan fill="#2A33C2" font-weight="500">nativerse</tspan></text>
</svg>
