<svg xmlns="http://www.w3.org/2000/svg" viewBox="0 0 3072 3072" role="img" aria-label="Nativerse">
  <g fill="#2A33C2">
  <path d="M0,0 L20,0 L26,5 L32,15 L34,16 L55,17 L60,22 L66,31 L75,37 L79,42 L83,49 L85,50 L106,51 L111,56 L117,65 L126,71 L134,82 L137,84 L157,85 L162,90 L167,98 L177,105 L183,114 L186,117 L188,118 L208,119 L214,126 L218,132 L228,139 L235,149 L245,156 L250,164 L254,168 L256,169 L276,170 L281,175 L286,183 L296,190 L304,201 L313,207 L320,217 L330,224 L337,234 L341,237 L361,238 L367,245 L371,251 L381,258 L386,266 L390,270 L398,275 L405,285 L415,292 L422,302 L426,305 L446,306 L452,313 L456,320 L465,325 L469,330 L473,337 L482,342 L490,353 L500,360 L505,368 L509,372 L517,377 L522,385 L526,389 L534,390 L545,390 L551,393 L558,405 L567,410 L571,415 L575,422 L584,427 L590,436 L594,440 L602,445 L609,455 L618,461 L624,470 L628,474 L648,475 L654,480 L659,488 L664,492 L670,496 L677,507 L685,511 L691,519 L694,524 L703,529 L710,539 L715,543 L721,547 L727,556 L737,563 L744,573 L754,580 L761,590 L771,597 L777,606 L781,610 L787,613 L791,618 L796,626 L804,630 L808,635 L812,641 L820,646 L825,651 L826,653 L826,670 L829,676 L838,681 L842,686 L846,692 L856,699 L863,709 L873,716 L880,726 L890,733 L897,743 L907,750 L914,760 L924,767 L931,777 L941,784 L946,792 L950,796 L958,801 L965,811 L975,818 L982,828 L990,833 L995,838 L996,841 L996,858 L999,863 L1008,868 L1012,873 L1016,879 L1026,886 L1033,896 L1043,903 L1048,911 L1052,915 L1060,919 L1063,923 L1064,930 L1064,943 L1067,948 L1076,953 L1080,958 L1084,965 L1094,970 L1097,974 L1098,977 L1098,1673 L1095,1679 L1084,1685 L1077,1696 L1073,1699 L1067,1702 L1060,1713 L1050,1719 L1043,1730 L1033,1736 L1028,1744 L1024,1749 L1016,1753 L1009,1764 L999,1770 L992,1781 L982,1787 L975,1798 L965,1804 L958,1815 L948,1821 L941,1832 L932,1838 L926,1848 L921,1852 L914,1851 L909,1846 L904,1838 L894,1830 L888,1821 L879,1815 L871,1804 L862,1798 L854,1787 L844,1781 L841,1777 L840,1756 L835,1751 L829,1748 L824,1742 L820,1736 L810,1730 L807,1726 L807,1709 L804,1702 L795,1697 L791,1692 L787,1686 L779,1681 L774,1676 L773,1674 L773,1658 L770,1651 L761,1646 L757,1641 L753,1635 L749,1632 L743,1629 L739,1624 L738,1603 L733,1598 L727,1595 L723,1590 L717,1582 L709,1578 L705,1573 L705,1555 L702,1549 L692,1544 L689,1541 L688,1538 L688,1521 L685,1515 L675,1510 L669,1500 L664,1496 L658,1492 L650,1481 L641,1475 L634,1465 L630,1462 L624,1459 L621,1456 L620,1453 L620,1436 L617,1430 L609,1426 L604,1420 L600,1414 L591,1408 L587,1403 L583,1397 L579,1394 L573,1391 L570,1388 L569,1385 L569,1367 L566,1362 L558,1358 L553,1352 L549,1346 L540,1340 L536,1335 L532,1329 L523,1323 L519,1318 L514,1311 L506,1306 L502,1301 L498,1295 L488,1289 L485,1285 L484,1278 L484,1265 L481,1260 L471,1255 L465,1245 L455,1238 L451,1233 L447,1227 L438,1221 L434,1216 L430,1210 L421,1204 L417,1199 L413,1193 L404,1187 L400,1182 L396,1176 L386,1170 L383,1166 L382,1146 L379,1141 L377,1140 L357,1139 L351,1135 L346,1126 L340,1122 L335,1119 L332,1115 L331,1095 L328,1090 L326,1089 L305,1088 L300,1084 L295,1075 L285,1068 L281,1063 L277,1057 L268,1051 L264,1046 L260,1040 L251,1034 L247,1029 L243,1023 L234,1017 L230,1012 L226,1006 L217,1000 L213,995 L209,989 L200,983 L192,972 L183,967 L176,956 L172,953 L152,952 L147,947 L141,938 L131,932 L125,922 L115,915 L107,904 L98,898 L90,887 L87,885 L67,884 L62,879 L56,870 L48,865 L43,859 L39,853 L31,847 L24,836 L22,835 L15,835 L10,841 L5,849 L-3,854 L-9,864 L-13,867 L-32,868 L-38,872 L-43,881 L-51,886 L-56,891 L-61,899 L-71,905 L-77,915 L-81,918 L-88,919 L-101,919 L-106,924 L-112,933 L-122,939 L-128,949 L-136,954 L-141,959 L-146,967 L-156,973 L-162,983 L-170,988 L-174,992 L-180,1001 L-189,1006 L-195,1016 L-200,1020 L-219,1021 L-224,1024 L-229,1033 L-234,1037 L-241,1041 L-247,1051 L-255,1056 L-259,1060 L-264,1068 L-268,1071 L-274,1074 L-280,1084 L-285,1088 L-291,1091 L-294,1096 L-294,1114 L-298,1120 L-308,1125 L-315,1136 L-325,1142 L-331,1152 L-339,1157 L-344,1162 L-349,1170 L-353,1173 L-359,1176 L-365,1186 L-373,1191 L-378,1196 L-379,1198 L-379,1213 L-378,1227 L-381,1237 L-385,1240 L-393,1244 L-396,1250 L-396,2045 L-393,2051 L-383,2056 L-380,2059 L-379,2062 L-379,2079 L-376,2085 L-366,2090 L-363,2093 L-362,2096 L-362,2113 L-359,2119 L-349,2124 L-343,2134 L-338,2138 L-332,2141 L-326,2151 L-318,2156 L-312,2161 L-311,2163 L-311,2181 L-308,2187 L-300,2191 L-295,2197 L-289,2205 L-280,2210 L-277,2216 L-276,2220 L-276,2229 L-279,2237 L-285,2242 L-321,2243 L-326,2246 L-331,2255 L-336,2259 L-594,2259 L-600,2254 L-605,2246 L-613,2241 L-618,2236 L-619,2233 L-619,1129 L-616,1124 L-611,1120 L-605,1117 L-598,1106 L-588,1100 L-585,1095 L-585,1077 L-581,1071 L-571,1066 L-564,1055 L-554,1049 L-547,1038 L-537,1032 L-530,1021 L-520,1015 L-514,1005 L-506,1000 L-501,995 L-496,987 L-486,981 L-479,970 L-469,964 L-462,953 L-452,947 L-445,936 L-435,930 L-428,919 L-418,913 L-412,903 L-404,898 L-399,893 L-394,885 L-385,880 L-377,868 L-368,863 L-363,855 L-359,850 L-350,845 L-344,835 L-340,832 L-321,831 L-315,827 L-310,818 L-306,815 L-300,812 L-293,801 L-289,798 L-283,795 L-276,784 L-272,781 L-266,778 L-261,770 L-257,765 L-249,761 L-242,750 L-232,744 L-227,736 L-223,731 L-215,727 L-208,716 L-204,713 L-198,710 L-191,699 L-187,696 L-167,695 L-162,690 L-156,681 L-147,676 L-140,665 L-130,659 L-123,648 L-119,645 L-113,642 L-106,631 L-102,628 L-82,627 L-77,622 L-72,614 L-68,611 L-62,608 L-56,598 L-51,594 L-31,593 L-26,588 L-21,580 L-17,577 L-11,574 L-5,565 L-1,561 L1,560 L20,560 L25,564 L31,573 L41,580 L49,591 L52,593 L71,594 L76,597 L83,609 L91,613 L96,619 L100,626 L102,627 L123,628 L128,633 L133,641 L143,648 L150,658 L160,665 L167,675 L177,682 L183,691 L187,695 L208,696 L214,703 L220,711 L228,716 L235,726 L245,733 L252,743 L262,750 L267,758 L271,762 L273,763 L293,764 L298,769 L303,777 L313,784 L320,794 L330,801 L337,811 L347,818 L354,828 L364,835 L371,845 L381,852 L386,860 L390,864 L398,869 L403,877 L407,881 L415,886 L422,896 L432,903 L437,911 L441,915 L449,920 L456,930 L466,937 L473,947 L483,954 L488,962 L492,966 L500,971 L507,981 L517,988 L524,998 L534,1005 L541,1015 L551,1022 L558,1032 L568,1039 L575,1049 L580,1052 L586,1057 L592,1067 L600,1071 L604,1076 L610,1084 L619,1090 L626,1100 L635,1106 L641,1115 L645,1119 L651,1122 L655,1127 L659,1133 L664,1137 L670,1141 L677,1152 L685,1156 L691,1164 L694,1169 L704,1174 L707,1178 L708,1199 L713,1204 L719,1207 L723,1212 L727,1218 L735,1223 L740,1227 L741,1229 L741,1246 L744,1253 L753,1258 L758,1264 L762,1270 L771,1276 L779,1287 L789,1293 L792,1297 L793,1318 L798,1323 L804,1326 L808,1331 L812,1337 L822,1344 L826,1349 L830,1355 L838,1361 L841,1365 L844,1371 L848,1374 L855,1373 L858,1370 L859,1367 L858,1354 L857,1350 L858,1314 L863,1308 L873,1303 L875,1297 L875,1251 L872,1244 L861,1238 L858,1233 L857,1223 L858,1047 L855,1040 L844,1034 L838,1024 L834,1021 L828,1018 L824,1013 L823,992 L819,988 L811,983 L803,972 L794,966 L790,961 L786,955 L777,950 L770,939 L766,936 L760,933 L756,928 L756,911 L753,904 L743,899 L736,888 L726,881 L722,876 L718,870 L709,864 L701,853 L692,847 L685,837 L681,834 L675,831 L668,820 L658,813 L650,802 L642,797 L636,789 L632,784 L624,779 L616,768 L607,762 L600,752 L596,749 L590,746 L584,736 L576,731 L571,726 L565,717 L556,712 L550,702 L540,695 L536,690 L532,684 L527,681 L520,675 L514,666 L505,660 L498,650 L488,644 L482,634 L474,629 L469,624 L464,616 L461,614 L442,613 L436,609 L431,600 L421,593 L417,588 L413,582 L404,576 L400,571 L396,565 L387,559 L383,554 L379,548 L370,542 L366,537 L362,531 L353,525 L349,520 L345,514 L335,508 L328,496 L326,495 L305,494 L300,490 L295,481 L285,474 L281,469 L277,463 L268,457 L264,452 L260,446 L251,440 L247,435 L243,429 L240,427 L220,426 L215,421 L209,412 L200,406 L192,395 L182,389 L176,379 L172,376 L152,375 L147,370 L141,361 L132,355 L128,350 L125,344 L121,342 L101,341 L96,336 L91,328 L87,325 L81,322 L74,310 L70,308 L50,307 L45,302 L40,294 L31,287 L26,279 L22,275 L16,274 L11,279 L7,287 L3,290 L-15,291 L-20,294 L-26,304 L-34,309 L-39,314 L-44,322 L-47,324 L-66,325 L-72,329 L-77,338 L-81,341 L-87,344 L-94,355 L-98,358 L-118,359 L-123,363 L-128,372 L-136,377 L-141,382 L-146,390 L-149,392 L-169,393 L-174,398 L-180,407 L-189,412 L-196,423 L-200,426 L-206,429 L-213,440 L-217,443 L-236,444 L-241,447 L-247,457 L-251,460 L-257,463 L-263,473 L-268,477 L-274,480 L-281,491 L-291,497 L-298,508 L-308,514 L-314,524 L-319,528 L-325,531 L-331,541 L-336,545 L-356,546 L-361,551 L-366,559 L-376,565 L-382,575 L-390,580 L-395,585 L-400,593 L-410,599 L-416,609 L-424,614 L-429,619 L-434,627 L-444,633 L-450,643 L-455,647 L-475,648 L-480,653 L-485,661 L-495,667 L-501,677 L-509,682 L-514,687 L-519,695 L-529,701 L-535,711 L-543,716 L-548,721 L-553,729 L-563,735 L-569,745 L-577,750 L-582,755 L-587,763 L-597,769 L-603,779 L-611,784 L-616,789 L-621,797 L-631,803 L-637,813 L-645,818 L-650,823 L-655,831 L-665,837 L-671,847 L-679,852 L-684,857 L-689,865 L-699,871 L-705,881 L-713,886 L-717,890 L-722,898 L-730,903 L-734,907 L-740,916 L-750,922 L-752,925 L-753,946 L-757,951 L-767,956 L-773,966 L-777,969 L-783,972 L-790,983 L-794,986 L-800,989 L-807,1000 L-811,1003 L-817,1006 L-820,1011 L-820,1028 L-823,1034 L-834,1040 L-837,1045 L-837,1197 L-839,1202 L-845,1207 L-851,1210 L-854,1214 L-854,1248 L-852,1252 L-842,1256 L-838,1261 L-838,1270 L-843,1275 L-853,1280 L-855,1287 L-854,1299 L-854,1351 L-855,1363 L-852,1370 L-841,1376 L-838,1379 L-838,1389 L-843,1394 L-853,1399 L-855,1405 L-854,1418 L-854,1757 L-855,1771 L-852,1778 L-840,1784 L-838,1787 L-838,1797 L-843,1802 L-851,1805 L-855,1811 L-855,1823 L-851,1829 L-841,1833 L-838,1837 L-837,1843 L-840,1849 L-849,1853 L-853,1857 L-853,1864 L-850,1867 L-841,1871 L-837,1876 L-837,1961 L-840,1967 L-846,1971 L-852,1974 L-854,1978 L-854,2012 L-849,2017 L-841,2021 L-838,2024 L-838,2034 L-843,2039 L-853,2044 L-855,2050 L-854,2063 L-854,2097 L-855,2110 L-852,2117 L-840,2123 L-838,2126 L-838,2134 L-843,2139 L-852,2143 L-853,2145 L-853,2151 L-850,2154 L-841,2158 L-838,2161 L-837,2167 L-840,2173 L-849,2177 L-854,2182 L-855,2192 L-854,2199 L-854,2403 L-850,2408 L-842,2412 L-838,2417 L-837,2420 L-837,2470 L-834,2475 L-831,2477 L-625,2478 L-619,2482 L-614,2491 L-610,2494 L-557,2494 L-552,2489 L-547,2481 L-542,2478 L-65,2478 L-59,2482 L-54,2491 L-50,2494 L-14,2495 L-8,2499 L-2,2510 L0,2511 L21,2512 L26,2517 L32,2526 L42,2532 L48,2542 L58,2549 L62,2554 L66,2560 L75,2566 L79,2571 L83,2577 L92,2583 L96,2588 L100,2594 L109,2600 L113,2605 L117,2611 L126,2617 L130,2622 L134,2628 L144,2634 L150,2644 L155,2647 L175,2648 L180,2653 L181,2655 L181,2673 L184,2678 L194,2682 L198,2688 L198,2694 L194,2700 L184,2704 L177,2714 L173,2717 L163,2718 L-1019,2717 L-1024,2713 L-1029,2704 L-1032,2702 L-1050,2701 L-1056,2698 L-1059,2694 L-1060,2691 L-1060,2659 L-1059,2644 L-1062,2636 L-1068,2633 L-1076,2633 L-1076,967 L-1065,966 L-1060,961 L-1060,945 L-1058,938 L-1053,934 L-1046,930 L-1040,920 L-1032,915 L-1027,910 L-1022,902 L-1012,896 L-1006,886 L-998,881 L-993,876 L-988,868 L-978,862 L-976,859 L-975,838 L-970,833 L-962,829 L-955,818 L-951,815 L-945,812 L-940,804 L-936,799 L-927,794 L-921,784 L-917,781 L-911,778 L-906,770 L-902,765 L-894,761 L-887,751 L-882,747 L-876,743 L-870,733 L-860,727 L-853,716 L-843,710 L-836,699 L-826,693 L-823,689 L-822,668 L-818,663 L-816,662 L-795,661 L-790,656 L-784,647 L-775,642 L-768,632 L-763,628 L-757,624 L-751,614 L-741,608 L-734,597 L-724,591 L-719,583 L-714,578 L-706,573 L-700,563 L-690,557 L-683,546 L-673,540 L-666,529 L-655,523 L-653,518 L-653,501 L-650,495 L-639,489 L-632,478 L-622,472 L-615,461 L-610,458 L-591,457 L-586,452 L-580,443 L-571,438 L-564,427 L-554,421 L-548,411 L-540,406 L-535,401 L-530,393 L-524,390 L-511,390 L-504,388 L-498,379 L-493,374 L-485,369 L-479,359 L-469,353 L-462,342 L-452,336 L-446,326 L-442,323 L-439,322 L-424,322 L-418,319 L-412,309 L-404,304 L-399,299 L-394,291 L-384,285 L-377,274 L-367,268 L-361,258 L-357,255 L-347,254 L-338,254 L-332,250 L-327,241 L-323,238 L-317,235 L-312,227 L-308,222 L-300,218 L-293,207 L-289,204 L-283,201 L-276,190 L-272,187 L-253,186 L-247,182 L-242,173 L-234,168 L-229,163 L-224,155 L-214,149 L-208,139 L-204,136 L-184,135 L-179,130 L-173,121 L-164,116 L-157,105 L-153,102 L-133,101 L-128,96 L-122,87 L-113,82 L-106,71 L-102,68 L-82,67 L-77,62 L-72,54 L-68,51 L-62,48 L-55,37 L-51,34 L-31,33 L-26,28 L-21,20 L-17,17 L-11,14 L-6,6 L-2,1 Z "  transform="translate(1076,50)"/>
  <path d="M0,0 L1232,0 L1232,1750 L1221,1751 L1216,1756 L1216,1772 L1214,1779 L1209,1783 L1202,1787 L1196,1797 L1190,1801 L1184,1804 L1183,1806 L1182,1827 L1178,1833 L1168,1838 L1162,1848 L1154,1853 L1149,1858 L1143,1867 L1134,1872 L1127,1883 L1118,1888 L1111,1899 L1107,1902 L1101,1905 L1096,1913 L1092,1918 L1083,1923 L1077,1933 L1073,1936 L1065,1940 L1064,1942 L1063,1964 L1058,1969 L1050,1973 L1043,1983 L1038,1987 L1032,1991 L1026,2000 L1021,2004 L1015,2008 L1009,2018 L999,2024 L994,2032 L989,2037 L981,2042 L975,2052 L965,2058 L960,2066 L955,2071 L947,2076 L941,2085 L936,2089 L930,2093 L924,2102 L919,2106 L913,2110 L907,2120 L897,2126 L892,2134 L887,2139 L879,2144 L873,2154 L863,2160 L858,2168 L853,2173 L845,2178 L839,2188 L829,2194 L822,2205 L812,2211 L805,2222 L795,2228 L788,2239 L778,2245 L771,2256 L761,2262 L754,2273 L744,2279 L737,2290 L727,2296 L721,2306 L715,2310 L696,2311 L691,2316 L686,2324 L676,2330 L669,2341 L659,2347 L652,2358 L642,2364 L635,2375 L629,2378 L613,2378 L607,2382 L601,2392 L591,2398 L585,2408 L577,2413 L572,2418 L567,2426 L557,2432 L551,2442 L543,2447 L538,2452 L533,2460 L527,2463 L511,2463 L506,2466 L500,2476 L492,2481 L487,2486 L482,2494 L472,2500 L466,2510 L462,2513 L442,2514 L437,2518 L432,2527 L428,2530 L422,2533 L415,2544 L411,2547 L392,2548 L386,2552 L381,2561 L373,2566 L368,2571 L363,2579 L353,2585 L347,2595 L343,2598 L323,2599 L318,2604 L312,2613 L303,2618 L297,2628 L292,2632 L272,2633 L267,2638 L261,2647 L252,2652 L245,2663 L241,2666 L221,2667 L216,2672 L210,2681 L201,2686 L195,2696 L189,2700 L136,2700 L129,2694 L124,2686 L115,2680 L111,2675 L107,2669 L104,2667 L84,2666 L79,2662 L74,2652 L70,2650 L50,2649 L45,2644 L39,2635 L30,2629 L22,2618 L13,2612 L7,2603 L4,2600 L2,2599 L-18,2598 L-23,2593 L-29,2584 L-38,2578 L-46,2567 L-55,2561 L-63,2550 L-66,2548 L-86,2547 L-91,2542 L-96,2534 L-106,2527 L-111,2519 L-115,2515 L-117,2514 L-137,2513 L-143,2506 L-149,2498 L-157,2493 L-164,2483 L-174,2476 L-181,2466 L-186,2463 L-205,2462 L-210,2457 L-215,2448 L-224,2443 L-228,2438 L-232,2432 L-242,2425 L-249,2415 L-259,2408 L-265,2399 L-268,2396 L-277,2395 L-286,2395 L-293,2392 L-299,2382 L-304,2378 L-310,2374 L-317,2364 L-327,2357 L-332,2349 L-336,2345 L-344,2340 L-351,2330 L-361,2323 L-366,2315 L-370,2311 L-378,2310 L-389,2310 L-394,2307 L-398,2302 L-402,2295 L-411,2290 L-415,2285 L-419,2278 L-428,2273 L-434,2264 L-438,2260 L-444,2257 L-450,2249 L-454,2244 L-462,2239 L-470,2228 L-479,2222 L-485,2213 L-489,2209 L-495,2206 L-500,2200 L-504,2194 L-513,2188 L-517,2183 L-521,2176 L-523,2175 L-543,2174 L-549,2169 L-555,2160 L-564,2154 L-571,2144 L-581,2137 L-588,2127 L-598,2120 L-604,2111 L-607,2108 L-615,2103 L-621,2094 L-625,2090 L-631,2087 L-635,2082 L-641,2074 L-649,2069 L-656,2059 L-666,2052 L-673,2042 L-683,2035 L-690,2025 L-700,2018 L-707,2008 L-717,2001 L-724,1991 L-734,1984 L-741,1974 L-749,1969 L-754,1964 L-755,1962 L-755,1944 L-758,1939 L-767,1934 L-771,1929 L-775,1923 L-785,1916 L-792,1906 L-802,1899 L-809,1889 L-819,1882 L-826,1872 L-836,1865 L-841,1857 L-845,1853 L-853,1849 L-856,1845 L-857,1836 L-857,1824 L-862,1819 L-870,1814 L-877,1804 L-887,1797 L-894,1787 L-898,1784 L-904,1781 L-907,1777 L-908,1769 L-908,1757 L-911,1752 L-921,1747 L-924,1743 L-925,1740 L-925,1689 L-928,1684 L-938,1679 L-941,1675 L-942,1672 L-942,1197 L-939,1191 L-927,1184 L-925,1180 L-925,1045 L-922,1038 L-911,1032 L-904,1021 L-894,1015 L-887,1004 L-883,1001 L-877,998 L-870,987 L-860,981 L-853,970 L-843,964 L-836,953 L-826,947 L-819,936 L-809,930 L-802,919 L-792,913 L-786,903 L-781,899 L-775,895 L-769,884 L-765,882 L-759,882 L-754,886 L-749,895 L-744,899 L-738,904 L-732,913 L-723,919 L-715,930 L-706,936 L-699,946 L-693,950 L-688,953 L-685,957 L-684,978 L-679,983 L-673,986 L-667,994 L-663,999 L-655,1004 L-647,1015 L-637,1021 L-634,1025 L-634,1042 L-631,1049 L-622,1054 L-618,1059 L-612,1067 L-604,1071 L-600,1076 L-600,1093 L-597,1100 L-588,1105 L-582,1113 L-578,1118 L-570,1123 L-562,1134 L-553,1139 L-549,1144 L-549,1162 L-546,1168 L-537,1173 L-533,1178 L-529,1184 L-525,1187 L-519,1190 L-516,1193 L-515,1196 L-515,1213 L-512,1219 L-503,1224 L-499,1229 L-493,1237 L-485,1242 L-478,1252 L-474,1255 L-468,1258 L-465,1261 L-464,1264 L-464,1281 L-461,1287 L-453,1291 L-448,1297 L-444,1303 L-435,1309 L-431,1314 L-427,1320 L-423,1323 L-417,1326 L-414,1329 L-413,1332 L-413,1350 L-410,1355 L-402,1359 L-397,1365 L-393,1371 L-384,1377 L-380,1382 L-376,1388 L-367,1394 L-363,1399 L-358,1406 L-349,1411 L-346,1414 L-345,1424 L-345,1435 L-342,1440 L-332,1445 L-326,1455 L-316,1462 L-312,1467 L-308,1473 L-299,1479 L-295,1484 L-291,1490 L-282,1496 L-278,1501 L-274,1507 L-265,1513 L-261,1518 L-257,1524 L-248,1530 L-244,1535 L-240,1541 L-230,1547 L-224,1557 L-214,1564 L-210,1569 L-206,1575 L-197,1581 L-193,1586 L-189,1592 L-180,1598 L-176,1603 L-172,1609 L-163,1615 L-159,1620 L-155,1626 L-146,1632 L-142,1637 L-138,1643 L-129,1649 L-125,1654 L-121,1660 L-112,1666 L-108,1671 L-104,1677 L-95,1683 L-91,1688 L-87,1694 L-78,1700 L-74,1705 L-70,1711 L-61,1717 L-57,1722 L-53,1728 L-50,1730 L-30,1731 L-25,1735 L-20,1744 L-10,1751 L-6,1756 L-2,1762 L7,1768 L11,1773 L15,1779 L24,1785 L32,1796 L41,1802 L49,1813 L52,1815 L72,1816 L77,1821 L83,1830 L92,1835 L98,1845 L103,1849 L109,1853 L113,1858 L117,1864 L120,1866 L136,1866 L142,1869 L148,1880 L151,1882 L158,1882 L163,1876 L166,1870 L169,1867 L188,1866 L193,1863 L199,1853 L207,1848 L212,1843 L217,1835 L227,1829 L233,1819 L237,1816 L243,1813 L250,1802 L254,1799 L262,1798 L273,1798 L278,1795 L284,1785 L292,1780 L296,1776 L302,1767 L312,1761 L318,1751 L322,1748 L328,1745 L335,1734 L339,1731 L345,1728 L351,1718 L356,1714 L375,1713 L380,1710 L385,1701 L390,1697 L397,1693 L402,1684 L407,1680 L414,1676 L420,1666 L424,1663 L430,1660 L436,1650 L441,1646 L447,1643 L453,1633 L458,1629 L464,1626 L470,1616 L475,1612 L481,1609 L483,1607 L484,1603 L484,1586 L488,1580 L498,1575 L504,1565 L509,1561 L515,1558 L521,1548 L529,1543 L534,1538 L535,1535 L535,1518 L539,1512 L549,1507 L552,1501 L552,638 L549,632 L539,627 L536,624 L535,621 L535,604 L532,598 L522,593 L516,583 L508,578 L503,574 L501,570 L501,553 L498,547 L488,542 L481,531 L472,525 L467,519 L463,513 L454,508 L451,505 L450,502 L450,485 L447,480 L437,476 L434,472 L433,466 L435,461 L440,457 L448,453 L455,443 L458,441 L767,441 L773,446 L778,455 L788,460 L791,464 L792,467 L792,1571 L789,1577 L778,1583 L775,1588 L775,1605 L772,1611 L761,1617 L754,1628 L744,1634 L741,1639 L741,1657 L737,1663 L727,1668 L720,1679 L710,1685 L703,1696 L693,1702 L686,1713 L676,1719 L670,1729 L662,1734 L657,1739 L651,1748 L642,1753 L635,1764 L625,1770 L618,1781 L608,1787 L601,1798 L591,1804 L585,1814 L577,1819 L572,1824 L567,1832 L557,1838 L550,1849 L540,1855 L533,1866 L524,1871 L518,1880 L513,1885 L507,1888 L500,1898 L494,1903 L488,1907 L483,1916 L475,1921 L470,1926 L465,1934 L456,1939 L448,1951 L439,1956 L432,1967 L428,1970 L408,1971 L403,1975 L398,1984 L394,1987 L388,1990 L383,1998 L379,2003 L371,2007 L366,2015 L362,2020 L360,2021 L340,2022 L335,2027 L329,2036 L320,2041 L313,2052 L309,2055 L303,2058 L298,2066 L294,2071 L292,2072 L272,2073 L267,2077 L262,2086 L252,2092 L245,2103 L235,2109 L229,2119 L224,2123 L204,2124 L199,2129 L194,2137 L190,2140 L184,2143 L179,2151 L174,2156 L172,2157 L153,2157 L147,2152 L141,2142 L139,2141 L118,2140 L113,2136 L108,2127 L98,2120 L94,2115 L91,2109 L87,2107 L68,2106 L61,2100 L56,2092 L47,2086 L40,2076 L30,2069 L23,2059 L19,2056 L-1,2055 L-6,2050 L-11,2042 L-21,2035 L-27,2026 L-31,2022 L-37,2019 L-41,2014 L-46,2006 L-48,2005 L-69,2004 L-74,1999 L-79,1991 L-89,1984 L-96,1974 L-106,1967 L-113,1957 L-123,1950 L-128,1942 L-133,1937 L-154,1936 L-159,1931 L-164,1923 L-174,1916 L-181,1906 L-191,1899 L-198,1889 L-208,1882 L-215,1872 L-225,1865 L-230,1857 L-234,1853 L-242,1848 L-247,1840 L-251,1836 L-259,1831 L-266,1821 L-276,1814 L-281,1806 L-285,1802 L-293,1797 L-300,1787 L-310,1780 L-317,1770 L-327,1763 L-332,1755 L-336,1751 L-344,1746 L-351,1736 L-361,1729 L-368,1719 L-378,1712 L-385,1702 L-395,1695 L-402,1685 L-412,1678 L-419,1668 L-424,1665 L-430,1660 L-436,1650 L-444,1646 L-448,1641 L-454,1633 L-463,1627 L-470,1617 L-479,1611 L-486,1601 L-496,1594 L-500,1589 L-504,1583 L-514,1577 L-517,1573 L-518,1552 L-523,1547 L-529,1544 L-535,1536 L-538,1531 L-546,1527 L-550,1522 L-556,1514 L-564,1509 L-571,1499 L-581,1492 L-588,1482 L-596,1477 L-601,1473 L-602,1471 L-602,1454 L-605,1447 L-614,1442 L-618,1437 L-624,1429 L-632,1424 L-640,1413 L-645,1410 L-651,1405 L-656,1397 L-666,1390 L-670,1385 L-674,1379 L-682,1373 L-685,1369 L-688,1363 L-692,1360 L-699,1361 L-702,1364 L-703,1367 L-702,1380 L-701,1384 L-702,1670 L-699,1677 L-688,1683 L-682,1693 L-672,1700 L-664,1711 L-655,1716 L-651,1721 L-650,1742 L-646,1746 L-638,1751 L-634,1756 L-630,1762 L-621,1767 L-614,1778 L-610,1781 L-604,1784 L-597,1795 L-593,1798 L-587,1801 L-583,1806 L-582,1827 L-578,1831 L-570,1835 L-563,1846 L-553,1853 L-545,1864 L-536,1870 L-529,1880 L-525,1883 L-519,1886 L-512,1897 L-502,1904 L-494,1915 L-486,1920 L-480,1928 L-476,1933 L-468,1938 L-460,1949 L-451,1955 L-444,1965 L-439,1968 L-422,1968 L-416,1971 L-413,1977 L-413,1995 L-410,2000 L-408,2001 L-388,2002 L-382,2006 L-376,2016 L-371,2019 L-365,2023 L-359,2033 L-350,2039 L-346,2044 L-341,2051 L-333,2056 L-329,2061 L-325,2067 L-315,2073 L-309,2083 L-299,2090 L-295,2095 L-291,2101 L-282,2107 L-278,2112 L-274,2118 L-264,2124 L-258,2134 L-255,2137 L-234,2138 L-229,2142 L-224,2151 L-214,2158 L-210,2163 L-206,2169 L-197,2175 L-193,2180 L-189,2186 L-180,2192 L-176,2197 L-172,2204 L-170,2205 L-149,2206 L-144,2210 L-139,2219 L-131,2224 L-126,2229 L-121,2237 L-118,2239 L-98,2240 L-93,2245 L-87,2254 L-78,2260 L-74,2265 L-70,2271 L-61,2277 L-57,2282 L-53,2288 L-44,2294 L-36,2305 L-33,2307 L-13,2308 L-8,2312 L-3,2321 L7,2328 L11,2333 L14,2339 L18,2341 L38,2342 L43,2347 L49,2356 L58,2362 L65,2372 L75,2379 L80,2387 L84,2391 L86,2392 L106,2393 L111,2398 L117,2407 L126,2413 L134,2424 L137,2426 L171,2426 L177,2422 L182,2413 L186,2410 L205,2409 L211,2405 L216,2396 L220,2393 L240,2392 L245,2387 L251,2378 L260,2373 L267,2362 L271,2359 L277,2356 L283,2346 L288,2342 L307,2341 L312,2338 L318,2328 L326,2323 L330,2319 L336,2310 L339,2308 L359,2307 L364,2302 L369,2294 L373,2291 L379,2288 L386,2277 L394,2272 L398,2268 L403,2260 L407,2257 L427,2256 L432,2251 L437,2243 L441,2240 L447,2237 L453,2227 L458,2223 L464,2220 L470,2210 L475,2206 L481,2203 L487,2193 L492,2189 L498,2186 L504,2176 L509,2172 L529,2171 L534,2166 L539,2158 L543,2155 L549,2152 L555,2142 L563,2137 L568,2132 L573,2124 L583,2118 L589,2108 L594,2104 L600,2101 L606,2091 L611,2087 L617,2083 L624,2073 L634,2067 L640,2057 L648,2052 L653,2047 L658,2039 L668,2033 L674,2023 L680,2019 L699,2018 L704,2013 L709,2005 L719,1999 L725,1989 L733,1984 L737,1980 L743,1971 L753,1965 L759,1955 L767,1950 L771,1946 L777,1937 L787,1931 L793,1921 L801,1916 L806,1911 L811,1903 L821,1897 L827,1887 L835,1882 L839,1878 L845,1869 L855,1863 L861,1853 L867,1849 L872,1846 L874,1843 L875,1822 L879,1817 L889,1812 L895,1802 L903,1797 L907,1793 L913,1784 L922,1778 L930,1767 L939,1762 L942,1757 L942,1740 L945,1734 L956,1728 L963,1717 L967,1714 L973,1711 L979,1701 L984,1697 L991,1693 L993,1689 L993,1672 L996,1666 L1007,1660 L1010,1656 L1010,246 L1006,241 L1004,240 L984,239 L978,234 L973,225 L970,223 L204,222 L198,218 L193,209 L189,206 L169,205 L164,201 L159,192 L149,185 L145,180 L141,174 L132,168 L128,163 L124,157 L115,152 L110,144 L106,139 L98,134 L94,129 L90,123 L81,117 L77,112 L73,106 L64,100 L60,95 L56,89 L47,83 L43,78 L39,72 L30,66 L22,55 L13,49 L9,44 L5,38 L-5,32 L-8,27 L-9,23 L-9,12 L-6,4 Z "  transform="translate(1840,305)"/>
  </g>
</svg>
